<?xml version="1.0" encoding="UTF-8" standalone="no"?>
<!DOCTYPE svg PUBLIC "-//W3C//DTD SVG 1.1//EN" "http://www.w3.org/Graphics/SVG/1.1/DTD/svg11.dtd">
<svg version="1.1" xmlns="http://www.w3.org/2000/svg" xmlns:xlink="http://www.w3.org/1999/xlink" preserveAspectRatio="xMidYMid meet" viewBox="0 0 640 640" width="682.67" height="682.67"><defs><path d="M438.8 534.6C438.8 564.7 463.3 589.2 493.4 589.2C523.49 589.2 548 564.7 548 534.6C548 504.5 523.49 480 493.4 480C463.3 480 438.8 504.5 438.8 534.6ZM460.64 534.6C460.64 516.54 475.33 501.84 493.4 501.84C511.46 501.84 526.16 516.54 526.16 534.6C526.16 552.66 511.46 567.36 493.4 567.36C475.33 567.36 460.64 552.66 460.64 534.6Z" id="b5Ydy4rOc0"></path><path d="M210.8 534.6C210.8 564.7 235.3 589.2 265.4 589.2C295.49 589.2 320 564.7 320 534.6C320 504.5 295.5 480 265.4 480C235.3 480 210.8 504.5 210.8 534.6ZM232.64 534.6C232.64 516.54 247.33 501.84 265.4 501.84C283.46 501.84 298.16 516.54 298.16 534.6C298.16 552.66 283.46 567.36 265.4 567.36C247.33 567.36 232.64 552.66 232.64 534.6Z" id="bhvdegiBH"></path><path d="M457.59 172.54L572.52 309.49L378.32 332.8L184.13 356.11L263.38 195.85L342.65 35.6L457.59 172.54Z" id="c1BugEkHpX"></path><path d="M614.16 209.1C614.16 273.03 561.98 324.94 497.71 324.94C433.43 324.94 381.25 273.03 381.25 209.1C381.25 145.16 433.43 93.26 497.71 93.26C561.98 93.26 614.16 145.16 614.16 209.1Z" id="a2TWKweA24"></path><path d="M131.39 291.71L564.88 15.92L615.93 96.16L182.44 371.96L131.39 291.71Z" id="ce0MC4xb5"></path><path d="M238.9 426.67C207.25 426.67 179.76 404.13 173.54 373.07C166.83 339.5 113.11 70.96 106.4 37.39C105.15 31.15 99.68 26.67 93.33 26.67C85.33 26.67 21.33 26.67 13.33 26.67C5.97 26.67 0 32.64 0 40C0 47.36 5.97 53.34 13.33 53.34C17.94 53.34 40.96 53.34 82.4 53.34C121.39 248.33 143.05 356.65 147.38 378.32C156.08 421.78 194.58 453.33 238.9 453.33C272.35 453.33 539.88 453.33 573.33 453.33C580.69 453.33 586.66 447.36 586.66 440C586.66 432.64 580.69 426.67 573.33 426.67C506.44 426.67 272.35 426.67 238.9 426.67Z" id="bDQXrZfNz"></path><path d="M626.66 84C575.99 84 170.66 84 120 84C112.64 84 106.67 90.84 106.67 99.28C106.67 107.71 112.64 114.55 120 114.55C152.75 114.55 316.51 114.55 611.27 114.55C598.35 218.5 591.16 276.24 589.73 287.79C588.87 294.64 584.1 299.98 578.13 300.81C536.16 306.64 200.4 353.29 158.42 359.12C151.09 360.15 145.89 367.76 146.77 376.14C147.6 383.9 153.33 389.58 160 389.58C160.53 389.58 161.06 389.55 161.6 389.49C203.57 383.66 539.33 336.99 581.3 331.16C599.22 328.65 613.51 312.61 616.07 292.13C618.45 273.06 637.48 120.49 639.86 101.42C640.42 97.04 639.27 92.58 636.74 89.25C634.21 85.92 630.53 84 626.66 84Z" id="d3pTSX06nm"></path><path d="M615.94 146.81C621.46 146.81 625.94 151.29 625.94 156.81C625.94 160.16 625.94 160.2 625.94 163.54C625.94 169.07 621.46 173.54 615.94 173.54C543.68 173.54 336.91 173.54 264.65 173.54C259.13 173.54 254.65 169.07 254.65 163.54C254.65 160.2 254.65 160.16 254.65 156.81C254.65 151.29 259.13 146.81 264.65 146.81C336.91 146.81 543.68 146.81 615.94 146.81Z" id="cemHHKPv"></path><path d="M604.97 223.24C610.47 223.24 614.93 227.7 614.93 233.2C614.93 236.56 614.93 236.65 614.93 240.01C614.93 245.51 610.47 249.97 604.97 249.97C553.9 249.97 410.63 249.97 359.55 249.97C354.05 249.97 349.59 245.51 349.59 240.01C349.59 236.65 349.59 236.56 349.59 233.2C349.59 227.7 354.05 223.24 359.55 223.24C410.63 223.24 553.9 223.24 604.97 223.24Z" id="a1N3i6G9c0"></path><path d="" id="asCApCNiT"></path></defs><g><g><g><use xlink:href="#b5Ydy4rOc0" opacity="1" fill="#000000" fill-opacity="1"></use><g><use xlink:href="#b5Ydy4rOc0" opacity="1" fill-opacity="0" stroke="#000000" stroke-width="1" stroke-opacity="0"></use></g></g><g><use xlink:href="#bhvdegiBH" opacity="1" fill="#000000" fill-opacity="1"></use><g><use xlink:href="#bhvdegiBH" opacity="1" fill-opacity="0" stroke="#000000" stroke-width="1" stroke-opacity="0"></use></g></g><g><use xlink:href="#c1BugEkHpX" opacity="1" fill="#7a1212" fill-opacity="1"></use></g><g><use xlink:href="#a2TWKweA24" opacity="1" fill="#ba1414" fill-opacity="1"></use></g><g><use xlink:href="#ce0MC4xb5" opacity="1" fill="#d42626" fill-opacity="1"></use></g><g><use xlink:href="#bDQXrZfNz" opacity="1" fill="#000000" fill-opacity="1"></use><g><use xlink:href="#bDQXrZfNz" opacity="1" fill-opacity="0" stroke="#000000" stroke-width="1" stroke-opacity="0"></use></g></g><g><use xlink:href="#d3pTSX06nm" opacity="1" fill="#000000" fill-opacity="1"></use><g><use xlink:href="#d3pTSX06nm" opacity="1" fill-opacity="0" stroke="#000000" stroke-width="1" stroke-opacity="0"></use></g></g><g><use xlink:href="#cemHHKPv" opacity="1" fill="#000000" fill-opacity="1"></use></g><g><use xlink:href="#a1N3i6G9c0" opacity="1" fill="#000000" fill-opacity="1"></use></g><g><g><use xlink:href="#asCApCNiT" opacity="1" fill-opacity="0" stroke="#000000" stroke-width="1" stroke-opacity="1"></use></g></g></g></g></svg>